<svg width="22" height="22" viewBox="0 0 22 22" fill="none" xmlns="http://www.w3.org/2000/svg">
<path d="M4.09823 3.60156C7.77614 0.53004 13.1469 0.34912 17.0825 3.07036L16.921 1.57695C16.8545 1.04806 17.2428 0.567539 17.7928 0.506421C18.3413 0.445485 18.8386 0.825105 18.907 1.35341L19.4066 5.47363C19.446 5.7587 19.3522 6.04647 19.1486 6.2571L19.1369 6.26913L19.0728 6.32266L19.0719 6.32343C18.8819 6.48085 18.638 6.56242 18.3888 6.55348L14.8812 7.13459L14.8416 7.13162C14.2921 7.09049 13.8771 6.62746 13.914 6.09671C13.9491 5.59146 14.381 5.20579 14.8958 5.20182L16.0425 4.72141C12.4288 2.13243 7.34188 2.66433 4.45502 6.00776C1.45614 9.48092 1.95963 14.6811 5.58963 17.6213C8.81235 20.2316 13.4899 20.2145 16.6339 17.588L16.6385 17.5844C18.6486 15.9669 19.7051 13.4927 19.4664 10.957C19.4124 10.4264 19.8133 9.9545 20.3651 9.90676C20.9142 9.85924 21.4017 10.2502 21.4564 10.7797L21.4566 10.7817C21.7611 13.9413 20.4506 17.031 17.9455 19.0551C13.5672 22.7098 6.92155 22.2085 3.09973 17.9443C-0.72267 13.6796 -0.280079 7.25801 4.09823 3.60156Z" fill="#9C9C9C"/>
<path d="M9.65262 7.51328C9.48667 6.82891 8.51333 6.82891 8.34738 7.51328L7.89076 9.39639C7.83151 9.64073 7.64073 9.83151 7.39639 9.89076L5.51329 10.3474C4.82891 10.5133 4.82891 11.4867 5.51328 11.6526L7.39639 12.1092C7.64073 12.1685 7.83151 12.3593 7.89076 12.6036L8.34738 14.4867C8.51333 15.1711 9.48667 15.1711 9.65262 14.4867L10.1092 12.6036C10.1685 12.3593 10.3593 12.1685 10.6036 12.1092L12.4867 11.6526C13.1711 11.4867 13.1711 10.5133 12.4867 10.3474L10.6036 9.89076C10.3593 9.83151 10.1685 9.64073 10.1092 9.39639L9.65262 7.51328Z" fill="#9C9C9C"/>
<path d="M12 16C12 16.5523 12.4477 17 13 17C13.5523 17 14 16.5523 14 16C14 15.4477 13.5523 15 13 15C12.4477 15 12 15.4477 12 16Z" fill="#9C9C9C"/>
<path d="M16 12C15.4477 12 15 11.5523 15 11C15 10.4477 15.4477 10 16 10C16.5523 10 17 10.4477 17 11C17 11.5523 16.5523 12 16 12Z" fill="#9C9C9C"/>
</svg>
