<svg width="175" height="39" viewBox="0 0 175 39" fill="none" xmlns="http://www.w3.org/2000/svg">
<g clip-path="url(#clip0_290_9140)">
<path d="M0.807892 19.4413C0.807892 29.8721 9.37692 38.3277 19.9476 38.3277C30.5184 38.3277 39.0879 29.8721 39.0879 19.4413C39.0879 9.0105 30.5184 0.55481 19.9476 0.55481C9.37692 0.55481 0.807892 9.01047 0.807892 19.4413Z" fill="#0C0C4F" stroke="#EC796B"/>
<path fill-rule="evenodd" clip-rule="evenodd" d="M11.2862 14.8763L11.7709 13.3985C11.8695 13.0979 12.1099 12.864 12.4156 12.7718L13.9205 12.3151C14.1288 12.2524 14.1305 11.9624 13.9239 11.8963L12.4257 11.4179C12.1217 11.3207 11.8847 11.0835 11.7907 10.7818L11.3284 9.29679C11.2648 9.09178 10.9709 9.08955 10.9039 9.29402L10.4192 10.7718C10.3206 11.0718 10.0802 11.3057 9.77452 11.3985L8.2696 11.8546C8.06129 11.9179 8.05903 12.2074 8.26622 12.2735L9.76438 12.7518C10.0684 12.849 10.3054 13.0868 10.3995 13.3885L10.8617 14.8729C10.9253 15.0785 11.2192 15.0807 11.2862 14.8763Z" fill="#FAFAFA"/>
<path fill-rule="evenodd" clip-rule="evenodd" d="M35.0729 14.0161C34.4527 13.3315 33.4843 12.9461 32.543 12.788C31.5942 12.6362 30.5991 12.6503 29.6625 12.8145C27.7672 13.1309 26.0453 13.9053 24.5435 14.8606C23.7636 15.3295 23.0985 15.872 22.4095 16.4245C22.0775 16.704 21.7748 17.0015 21.4596 17.2948L20.5982 18.1405C19.6623 19.1059 18.7398 19.9852 17.8472 20.714C16.951 21.4395 16.1132 21.9904 15.2875 22.3752C14.4623 22.7619 13.5793 22.9894 12.4285 23.0258C11.2877 23.0655 9.93808 22.8623 8.49443 22.527C7.04302 22.1932 5.51888 21.7173 3.81569 21.3078C4.40997 22.9347 5.30488 24.3724 6.45385 25.6865C7.6163 26.9779 9.06786 28.155 10.9325 28.9291C12.7703 29.7204 15.0798 30.0044 17.2392 29.5759C19.4044 29.1646 21.3044 28.1759 22.8402 27.0326C24.38 25.8776 25.6257 24.5619 26.6759 23.1938C26.9658 22.8159 27.1191 22.6044 27.3289 22.309L27.9089 21.4614C28.3118 20.9372 28.6787 20.3402 29.0776 19.8208C29.8596 18.7329 30.6305 17.6463 31.5263 16.6452C31.9772 16.1374 32.4527 15.6518 33.014 15.185C33.2942 14.9572 33.5964 14.7342 33.9315 14.5334C34.2715 14.3168 34.6307 14.1472 35.0729 14.0161Z" fill="#EC796B"/>
<path fill-rule="evenodd" clip-rule="evenodd" d="M35.0729 14.0161C34.4065 12.3565 33.1674 10.9595 31.5044 9.92867C29.8512 8.90913 27.5554 8.38884 25.2805 8.83236C24.1564 9.04686 23.0675 9.45982 22.1119 10.0097C21.1607 10.5575 20.3083 11.2169 19.5703 11.9242C19.202 12.2791 18.8676 12.6493 18.5354 13.0216L17.6744 14.1048L16.3446 15.8485C14.6492 18.0919 12.8236 20.7211 9.82761 21.5002C6.88644 22.265 5.6108 21.5876 3.81569 21.3078C4.14393 22.144 4.55049 22.9561 5.1017 23.6705C5.64261 24.3993 6.28152 25.0839 7.07585 25.6706C7.47727 25.9524 7.90109 26.2306 8.37181 26.4665C8.84036 26.6944 9.34566 26.895 9.88501 27.0461C10.9578 27.3363 12.1657 27.4379 13.3351 27.2819C14.5051 27.1278 15.6235 26.7619 16.601 26.276C17.5857 25.7947 18.4435 25.2085 19.2095 24.5899C20.7321 23.3421 21.9165 21.9634 22.9169 20.5699C23.4201 19.8731 23.8769 19.1632 24.2993 18.4531L24.7966 17.6077C24.9486 17.3606 25.1023 17.112 25.2586 16.8804C25.8885 15.9501 26.5047 15.2041 27.2531 14.6441C27.9911 14.0698 29.019 13.6453 30.3923 13.5468C31.76 13.447 33.3389 13.6313 35.0729 14.0161Z" fill="#FAFAFA"/>
<path fill-rule="evenodd" clip-rule="evenodd" d="M27.6737 27.8051C27.6737 29.0239 28.6757 30.0126 29.9108 30.0126C31.1462 30.0126 32.1468 29.0239 32.1468 27.8051C32.1468 26.5863 31.1462 25.5975 29.9108 25.5975C28.6757 25.5975 27.6737 26.5863 27.6737 27.8051Z" fill="#EC796B"/>
<path d="M171.933 14.0229V11.7939C171.933 11.7056 171.86 11.6339 171.771 11.6339H158.9C158.81 11.6339 158.738 11.7056 158.738 11.7939V14.0229H163.969V28.4432H166.702V14.0229H171.933Z" fill="white"/>
<path d="M145.286 11.6339C145.196 11.6339 145.123 11.7055 145.123 11.7939V28.2831C145.123 28.3714 145.196 28.4432 145.286 28.4432H156.117C156.207 28.4432 156.279 28.3714 156.279 28.2831V26.0777H147.857V20.795H154.815V18.477H147.857V13.9993H155.679V11.7939C155.679 11.7056 155.607 11.6339 155.517 11.6339H145.286Z" fill="white"/>
<path d="M139.005 28.3454L139.064 28.4432H141.163C141.253 28.4432 141.326 28.3714 141.326 28.2831V11.7939C141.326 11.7056 141.253 11.6339 141.163 11.6339H138.64V23.2752C138.202 22.5871 137.694 21.8296 137.115 21.0029C136.377 19.9271 135.584 18.8357 134.734 17.7288C133.901 16.6061 133.052 15.5228 132.186 14.4789C131.336 13.4184 130.533 12.4909 129.776 11.6969L129.717 11.6339H127.741C127.651 11.6339 127.578 11.7055 127.578 11.7939V28.2831C127.578 28.3714 127.651 28.4432 127.741 28.4432H130.263V15.9722C130.608 16.3742 130.976 16.8197 131.365 17.3089C131.891 17.9698 132.434 18.6782 132.992 19.4342L132.993 19.435L132.994 19.4358C133.552 20.1756 134.11 20.9469 134.669 21.75L134.67 21.7511L134.67 21.7522C135.245 22.5556 135.796 23.3511 136.322 24.1385L136.323 24.1393L136.324 24.1401C136.85 24.9112 137.336 25.6585 137.782 26.3819L137.783 26.3831L137.784 26.3846C138.247 27.1094 138.654 27.7631 139.005 28.3454Z" fill="white"/>
<path d="M124.277 11.9687L124.339 11.9017C124.434 11.799 124.36 11.6339 124.219 11.6339H121.227L121.166 11.7033C120.769 12.158 120.276 12.6922 119.685 13.3064C119.11 13.9055 118.495 14.5362 117.84 15.1986C117.185 15.8608 116.521 16.5229 115.85 17.1851C115.314 17.7021 114.813 18.1786 114.348 18.6147V11.6339H111.777C111.688 11.6339 111.615 11.7055 111.615 11.7939V28.2831C111.615 28.3714 111.688 28.4432 111.777 28.4432H114.348V20.8175C114.912 21.182 115.489 21.6087 116.078 22.0977L116.079 22.0985L116.08 22.0991C116.794 22.6783 117.493 23.3127 118.176 24.0024L118.177 24.004L118.179 24.0056C118.877 24.6791 119.536 25.3917 120.155 26.1435L120.155 26.1442L120.156 26.1452C120.775 26.8813 121.322 27.6164 121.797 28.3508L121.857 28.4432H124.773C124.898 28.4432 124.976 28.31 124.914 28.2034L124.879 28.1435C124.442 27.3917 123.892 26.6026 123.232 25.776C122.588 24.9507 121.897 24.1415 121.157 23.3483C120.418 22.555 119.662 21.8091 118.889 21.1105C118.19 20.4778 117.522 19.9345 116.885 19.4815C117.426 18.9596 118.001 18.3992 118.608 17.8003C119.28 17.1367 119.953 16.4653 120.625 15.786C121.314 15.0908 121.97 14.4193 122.595 13.7714L122.595 13.7705L122.596 13.7696C123.221 13.1063 123.781 12.5059 124.277 11.9687Z" fill="white"/>
<path fill-rule="evenodd" clip-rule="evenodd" d="M96.1009 11.5079C96.0115 11.508 95.9389 11.5796 95.9389 11.668V28.2931C95.9389 28.3817 96.0115 28.4533 96.1009 28.4533H98.4169V22.3407H101.8C102.181 22.7903 102.552 23.2608 102.914 23.7521L102.915 23.754L102.917 23.7559C103.509 24.5219 104.056 25.3211 104.558 26.1535L104.559 26.1543L104.559 26.1553C105.014 26.8918 105.411 27.6194 105.75 28.3378L105.805 28.4533H108.545C108.663 28.4533 108.741 28.3339 108.692 28.2284C108.377 27.547 108.036 26.8796 107.656 26.2296C107.141 25.3211 106.575 24.4214 105.96 23.531C105.608 23.0221 105.249 22.5277 104.882 22.0479C105.905 21.7395 106.713 21.1818 107.298 20.3724L107.299 20.3718C108.001 19.3922 108.349 18.2401 108.349 16.9243C108.349 16.02 108.19 15.1926 107.867 14.445C107.544 13.6865 107.057 13.0575 106.408 12.5613C105.764 12.0623 104.97 11.7449 104.035 11.6025C103.817 11.5629 103.592 11.5391 103.36 11.5311C103.133 11.5157 102.935 11.5078 102.767 11.5078C102.056 11.5078 101.346 11.5078 100.635 11.5077C99.1238 11.5075 97.6125 11.5074 96.1009 11.5079ZM105.825 16.9243C105.825 17.361 105.751 17.7907 105.603 18.2143C105.458 18.6211 105.227 18.9778 104.908 19.2859C104.605 19.5777 104.206 19.7847 103.7 19.9005C103.539 19.9364 103.367 19.9619 103.182 19.9765L103.181 19.9765L103.181 19.9765C102.999 19.9915 102.838 19.9988 102.697 19.9988H98.4169V13.8497H102.697C102.838 13.8497 102.999 13.857 103.181 13.872L103.185 13.8723L103.19 13.8725C103.37 13.8796 103.537 13.9044 103.692 13.946L103.697 13.9474L103.702 13.9485C104.206 14.0566 104.604 14.2628 104.906 14.5609L104.907 14.5617L104.908 14.5625C105.227 14.8702 105.458 15.2304 105.603 15.6451V15.6457L105.603 15.6462C105.751 16.0616 105.825 16.4874 105.825 16.9243Z" fill="white"/>
<path fill-rule="evenodd" clip-rule="evenodd" d="M89.8586 26.2239L89.8588 26.2247L89.8591 26.2254C90.0994 26.9058 90.356 27.6019 90.6286 28.3137L90.6781 28.4432H93.4196C93.5322 28.4432 93.6105 28.3329 93.572 28.2284C92.9732 26.6048 92.3686 24.9833 91.7519 23.3663C91.1917 21.8814 90.6393 20.4751 90.0947 19.1476C89.5663 17.82 89.0375 16.5554 88.5088 15.3537C87.9784 14.1324 87.4201 12.9231 86.8387 11.7247C86.8116 11.6692 86.7549 11.6339 86.6925 11.6339H84.5058C84.4434 11.6339 84.3865 11.6692 84.3597 11.7247C83.778 12.9232 83.22 14.1324 82.6895 15.3538C82.1608 16.5551 81.6244 17.8193 81.08 19.1466L81.0795 19.1475L81.0793 19.1485C80.5508 20.4756 80.0064 21.8815 79.4464 23.3662C78.8295 24.9833 78.2249 26.6048 77.6261 28.2284C77.5876 28.3329 77.6659 28.4432 77.7785 28.4432H80.4029L80.4032 28.443H80.4544L80.5145 28.3792C81.1476 27.7086 81.8553 27.0503 82.6378 26.4047L82.6386 26.4042L82.6393 26.4035C83.4248 25.7417 84.2438 25.128 85.0962 24.5621L85.0982 24.5609L85.0999 24.5594C85.9396 23.974 86.7847 23.4487 87.6351 22.9833L87.6361 22.9828L87.6371 22.9822C87.9433 22.8102 88.2448 22.65 88.5416 22.5015L89.1153 24.1185L89.1158 24.1198C89.3714 24.8292 89.6189 25.5305 89.8586 26.2239ZM86.9093 18.2505L86.9098 18.2519L86.9103 18.2532C87.1412 18.8301 87.3721 19.4165 87.603 20.0127C87.5859 20.0202 87.5682 20.028 87.5503 20.0361C86.7378 20.4013 85.8643 20.8734 84.9304 21.4514C84.0363 22.0048 83.1491 22.606 82.2692 23.255L82.6418 22.205C83.1347 20.8403 83.6276 19.5226 84.1205 18.2518C84.5737 17.1058 85.0457 16.0035 85.5364 14.9449C86.0127 16.0031 86.4703 17.105 86.9093 18.2505Z" fill="white"/>
<path d="M78.2953 14.0229V11.7939C78.2953 11.7056 78.2227 11.6339 78.133 11.6339H65.2622C65.1727 11.6339 65.1001 11.7056 65.1001 11.7939V14.0229H70.3311V28.2831C70.3311 28.3714 70.4037 28.4432 70.4934 28.4432H72.902C72.9915 28.4432 73.0641 28.3714 73.0641 28.2831V14.0229H78.2953Z" fill="white"/>
<path d="M53.2902 28.2387L53.2895 28.2384C52.2982 27.8215 51.4737 27.2262 50.8199 26.452L50.8192 26.4511L50.8184 26.4503C50.1714 25.6664 49.7511 24.7422 49.5559 23.6825C49.5462 23.6295 49.5584 23.5749 49.59 23.5309C49.6216 23.487 49.6698 23.4575 49.7237 23.4491L51.9039 23.1101C52.0071 23.094 52.1058 23.158 52.1316 23.2578C52.3966 24.2736 52.942 25.062 53.7687 25.6335C54.6079 26.2001 55.5975 26.4864 56.7459 26.4864C57.4908 26.4864 58.1565 26.3728 58.7459 26.1494C59.342 25.9183 59.8048 25.5943 60.1426 25.1812C60.4749 24.775 60.6427 24.294 60.6427 23.7286C60.6427 23.3775 60.5796 23.0902 60.4625 22.8593C60.4615 22.8572 60.4605 22.8551 60.4595 22.853C60.3457 22.607 60.1866 22.4015 59.9815 22.2342C59.9795 22.2326 59.9775 22.2309 59.9758 22.2293C59.77 22.048 59.5336 21.8947 59.2659 21.7699C58.992 21.6422 58.7064 21.5369 58.4088 21.4542L58.4061 21.4534L54.0573 20.1789C53.5731 20.0356 53.105 19.8564 52.6531 19.6413L52.6519 19.6408L52.6504 19.6401C52.1915 19.4136 51.7804 19.1339 51.418 18.8008L51.417 18.7997L51.4162 18.7991C51.0489 18.4531 50.7575 18.0417 50.542 17.5671L50.5415 17.566C50.3223 17.0753 50.2161 16.505 50.2161 15.8602C50.2161 14.8264 50.4868 13.9338 51.0374 13.1931L51.0377 13.1928C51.5905 12.4518 52.336 11.8887 53.2666 11.5019C54.1963 11.1158 55.239 10.9288 56.3919 10.9368C57.5602 10.9447 58.6112 11.1515 59.5408 11.5617C60.4777 11.9638 61.2547 12.5443 61.8682 13.303C62.4911 14.0634 62.9065 14.9707 63.1175 16.02C63.1282 16.0728 63.1168 16.1276 63.0859 16.172C63.0551 16.2164 63.0074 16.2467 62.9537 16.256L60.7143 16.6418C60.6611 16.6509 60.6067 16.6388 60.5627 16.6082C60.5184 16.5775 60.4886 16.5308 60.4797 16.4783C60.3666 15.8236 60.1155 15.2683 59.7292 14.8066L59.727 14.804C59.3452 14.3311 58.8664 13.9689 58.2873 13.7165L58.2853 13.7157C57.7049 13.4553 57.0655 13.3202 56.3646 13.3127H56.3643C55.6924 13.3051 55.0919 13.4106 54.5594 13.6252C54.0255 13.8404 53.6089 14.1373 53.3017 14.5127L53.3004 14.5142C52.9989 14.8753 52.849 15.2901 52.849 15.7666C52.849 16.2398 52.9857 16.6048 53.2445 16.8808C53.5236 17.1706 53.8669 17.4047 54.2776 17.5817C54.7128 17.758 55.1351 17.9032 55.545 18.0177L55.546 18.018L58.7914 18.9413C59.1697 19.0446 59.6017 19.1868 60.0869 19.3673C60.5948 19.5533 61.0844 19.8153 61.5557 20.152C62.0409 20.4907 62.4394 20.9428 62.7524 21.5036C63.074 22.0717 63.2281 22.7781 63.2281 23.6116C63.2281 24.4495 63.0566 25.2026 62.7081 25.8658C62.3701 26.5249 61.8953 27.0785 61.2863 27.5252L61.2848 27.5261C60.6793 27.9623 59.978 28.2914 59.1841 28.5154C58.3897 28.7472 57.541 28.8624 56.6392 28.8624C55.4076 28.8624 54.29 28.6559 53.2902 28.2387Z" fill="white"/>
</g>
<defs>
<clipPath id="clip0_290_9140">
<rect width="174" height="39" fill="white" transform="translate(0.270447)"/>
</clipPath>
</defs>
</svg>
