<svg width="130" height="32" viewBox="0 0 130 32" fill="none" xmlns="http://www.w3.org/2000/svg">
<g clip-path="url(#clip0_2619_10492)">
<path d="M17.8785 2.64684C17.9251 2.72802 17.8634 2.82838 17.7717 2.82838C15.9146 2.82838 14.4049 4.33952 14.3695 6.2173C13.7336 6.09528 13.0747 6.08611 12.4238 6.19882C12.3789 4.32961 10.873 2.82838 9.02198 2.82838C8.93019 2.82838 8.86846 2.72794 8.91513 2.6467C9.8141 1.08195 11.4846 0.0305176 13.3968 0.0305176C15.309 0.0305176 16.9795 1.08201 17.8785 2.64684Z" fill="url(#paint0_linear_2619_10492)"/>
<path d="M23.3787 14.2606C24.0104 14.4572 24.6056 13.8865 24.3672 13.254C22.5956 8.55316 17.352 6.62732 13.3713 6.62732C9.38295 6.62732 4.02252 8.61544 2.36626 13.2833C2.14327 13.9118 2.73694 14.4636 3.35923 14.2676L12.8987 11.2632C13.174 11.1765 13.4683 11.1761 13.7439 11.2618L23.3787 14.2606Z" fill="url(#paint1_linear_2619_10492)"/>
<path d="M2.27312 15.1655L12.9067 11.8509C13.1804 11.7656 13.4725 11.7654 13.7464 11.8502L24.4467 15.1671C25.3403 15.4441 25.9517 16.29 25.9517 17.2492V27.2427C25.9103 29.6821 23.7782 31.6373 21.4056 31.6373H17.4647C17.0752 31.6373 16.7597 31.3135 16.7597 30.9131V27.4092C16.7597 26.0296 17.5542 24.7809 18.7835 24.2281C20.4315 23.4873 22.381 22.4851 22.7477 20.4741C22.8661 19.8251 22.4543 19.199 21.8244 19.0703C20.2315 18.7449 18.4658 18.8706 16.9725 19.557C15.2774 20.3363 14.8339 21.6325 14.6698 23.3734L14.4708 25.2488C14.41 25.822 13.8872 26.2611 13.3264 26.2611C12.7464 26.2611 12.3114 25.807 12.2485 25.214L12.0532 23.3734C11.9126 21.8823 11.6577 20.4338 10.1578 19.7443C8.44696 18.9578 6.72764 18.6966 4.89862 19.0703C4.26871 19.199 3.85691 19.8251 3.97527 20.4741C4.34515 22.5026 6.27941 23.4818 7.93949 24.2281C9.16884 24.7809 9.96329 26.0296 9.96329 27.4092V30.9124C9.96329 31.3128 9.64798 31.6373 9.25844 31.6373H5.31745C2.9448 31.6373 0.812676 29.6821 0.77124 27.2427V17.2466C0.77124 16.2887 1.38115 15.4435 2.27312 15.1655Z" fill="url(#paint2_linear_2619_10492)"/>
<path d="M33.8408 27.7769V10.1646H41.8095C43.7056 10.1646 45.1687 10.5726 46.1984 11.3887C47.2282 12.2047 47.7432 13.3206 47.7432 14.7363C47.7432 15.7855 47.4325 16.6765 46.8114 17.4093C46.2066 18.1421 45.373 18.6335 44.3104 18.8833V18.4835C45.5527 18.7 46.509 19.1831 47.1792 19.9325C47.8657 20.6653 48.209 21.623 48.209 22.8054C48.209 24.371 47.6614 25.5951 46.5662 26.4778C45.4874 27.3439 43.9918 27.7769 42.0793 27.7769H33.8408ZM37.4941 24.8789H41.6134C42.5614 24.8789 43.2889 24.6958 43.7956 24.3293C44.3023 23.963 44.5557 23.38 44.5557 22.5806C44.5557 21.7645 44.3023 21.1816 43.7956 20.8319C43.2889 20.4655 42.5614 20.2822 41.6134 20.2822H37.4941V24.8789ZM37.4941 17.4093H41.123C42.1201 17.4093 42.8557 17.2262 43.3297 16.8597C43.8037 16.4934 44.0408 15.9437 44.0408 15.2109C44.0408 14.4948 43.8037 13.9535 43.3297 13.5871C42.8557 13.2207 42.1201 13.0375 41.123 13.0375H37.4941V17.4093Z" fill="white"/>
<path d="M50.6433 27.777V18.4587C50.6433 17.9091 50.627 17.3512 50.5943 16.7849C50.578 16.2187 50.5371 15.6607 50.4717 15.1111H54.027L54.4438 18.8084H53.8798C54.0433 17.9091 54.3048 17.168 54.6645 16.585C55.0404 16.0022 55.4981 15.5692 56.0375 15.286C56.5933 15.0028 57.2226 14.8613 57.9255 14.8613C58.2361 14.8613 58.4813 14.878 58.6611 14.9113C58.8408 14.9279 59.0207 14.9696 59.2005 15.0362L59.176 18.3588C58.8327 18.2089 58.5385 18.1173 58.2933 18.084C58.0644 18.034 57.7702 18.009 57.4106 18.009C56.7241 18.009 56.152 18.1423 55.6942 18.4087C55.2529 18.6752 54.9178 19.0666 54.689 19.5829C54.4765 20.0992 54.3702 20.7237 54.3702 21.4565V27.777H50.6433Z" fill="white"/>
<path d="M65.4591 28.0518C64.3803 28.0518 63.4322 27.7853 62.615 27.2524C61.7976 26.7194 61.1601 25.9616 60.7025 24.979C60.2448 23.9964 60.0159 22.8139 60.0159 21.4316C60.0159 20.0659 60.2448 18.8917 60.7025 17.9091C61.1601 16.9265 61.7976 16.177 62.615 15.6607C63.4322 15.1278 64.3803 14.8613 65.4591 14.8613C66.4562 14.8613 67.3471 15.1111 68.1317 15.6108C68.9327 16.0937 69.4558 16.7516 69.7009 17.5844H69.4312L69.7254 15.1111H73.2807C73.2317 15.6607 73.1827 16.2187 73.1336 16.7849C73.1009 17.3345 73.0846 17.8758 73.0846 18.4087V27.777H69.4067L69.3822 25.4037H69.6764C69.4149 26.2031 68.8918 26.8443 68.1072 27.3273C67.3226 27.8102 66.4399 28.0518 65.4591 28.0518ZM66.587 25.2038C67.4371 25.2038 68.1236 24.8957 68.6467 24.2795C69.1697 23.6633 69.4312 22.714 69.4312 21.4316C69.4312 20.1491 69.1697 19.2082 68.6467 18.6086C68.1236 18.009 67.4371 17.7092 66.587 17.7092C65.737 17.7092 65.0505 18.009 64.5274 18.6086C64.0043 19.2082 63.7428 20.1491 63.7428 21.4316C63.7428 22.714 63.9962 23.6633 64.5029 24.2795C65.026 24.8957 65.7207 25.2038 66.587 25.2038Z" fill="white"/>
<path d="M80.9514 28.0518C79.872 28.0518 78.9245 27.7853 78.1065 27.2524C77.2896 26.7194 76.6521 25.9616 76.1944 24.979C75.7367 23.9964 75.5078 22.8139 75.5078 21.4316C75.5078 20.0659 75.7367 18.8917 76.1944 17.9091C76.6521 16.9265 77.2896 16.177 78.1065 15.6607C78.9245 15.1278 79.872 14.8613 80.9514 14.8613C81.9481 14.8613 82.8394 15.1111 83.6238 15.6108C84.4246 16.0937 84.9475 16.7516 85.1926 17.5844H84.9233L85.2175 15.1111H88.7727C88.7235 15.6607 88.6743 16.2187 88.6259 16.7849C88.5932 17.3345 88.5768 17.8758 88.5768 18.4087V27.777H84.8983L84.8741 25.4037H85.1684C84.9069 26.2031 84.384 26.8443 83.5988 27.3273C82.8144 27.8102 81.9317 28.0518 80.9514 28.0518ZM82.0792 25.2038C82.9292 25.2038 83.6152 24.8957 84.1389 24.2795C84.6618 23.6633 84.9233 22.714 84.9233 21.4316C84.9233 20.1491 84.6618 19.2082 84.1389 18.6086C83.6152 18.009 82.9292 17.7092 82.0792 17.7092C81.2293 17.7092 80.5424 18.009 80.0195 18.6086C79.4966 19.2082 79.2351 20.1491 79.2351 21.4316C79.2351 22.714 79.488 23.6633 79.9945 24.2795C80.5182 24.8957 81.2129 25.2038 82.0792 25.2038Z" fill="white"/>
<path d="M95.0978 27.777L89.728 15.1111H93.6266L97.1817 24.3045H96.3723L100.05 15.1111H103.703L98.2853 27.777H95.0978Z" fill="white"/>
<path d="M110.595 28.0518C109.272 28.0518 108.119 27.7853 107.138 27.2524C106.174 26.7027 105.421 25.9366 104.882 24.954C104.359 23.9714 104.098 22.7973 104.098 21.4316C104.098 20.0826 104.359 18.9167 104.882 17.9341C105.421 16.9515 106.174 16.1937 107.138 15.6607C108.119 15.1278 109.272 14.8613 110.595 14.8613C111.919 14.8613 113.072 15.1278 114.052 15.6607C115.033 16.1937 115.785 16.9515 116.308 17.9341C116.848 18.9167 117.117 20.0826 117.117 21.4316C117.117 22.7973 116.848 23.9714 116.308 24.954C115.785 25.9366 115.033 26.7027 114.052 27.2524C113.072 27.7853 111.919 28.0518 110.595 28.0518ZM110.595 25.2038C111.445 25.2038 112.116 24.8957 112.606 24.2795C113.112 23.6633 113.366 22.714 113.366 21.4316C113.366 20.1491 113.112 19.2082 112.606 18.6086C112.116 18.009 111.445 17.7092 110.595 17.7092C109.745 17.7092 109.067 18.009 108.56 18.6086C108.07 19.2082 107.824 20.1491 107.824 21.4316C107.824 22.714 108.07 23.6633 108.56 24.2795C109.067 24.8957 109.745 25.2038 110.595 25.2038Z" fill="white"/>
<path d="M124.093 28.0518C122.981 28.0518 121.968 27.9269 121.053 27.677C120.137 27.4273 119.361 27.0774 118.724 26.6278L119.68 24.1296C120.318 24.5293 121.02 24.8457 121.788 25.0789C122.573 25.3121 123.35 25.4287 124.118 25.4287C124.837 25.4287 125.368 25.3121 125.712 25.0789C126.055 24.8457 126.227 24.5293 126.227 24.1296C126.227 23.7965 126.112 23.5384 125.883 23.3551C125.67 23.172 125.335 23.0387 124.878 22.9555L122.352 22.4808C121.29 22.2643 120.481 21.8646 119.925 21.2817C119.369 20.6988 119.091 19.941 119.091 19.0083C119.091 18.1922 119.304 17.476 119.729 16.8598C120.17 16.2269 120.799 15.7356 121.617 15.3859C122.434 15.0362 123.39 14.8613 124.485 14.8613C125.417 14.8613 126.3 14.9779 127.134 15.2111C127.967 15.4442 128.678 15.8023 129.267 16.2853L128.261 18.7085C127.755 18.3254 127.166 18.0174 126.496 17.7842C125.842 17.551 125.213 17.4344 124.608 17.4344C123.824 17.4344 123.259 17.5677 122.917 17.8341C122.573 18.084 122.402 18.4087 122.402 18.8084C122.402 19.1082 122.499 19.358 122.696 19.5579C122.908 19.7578 123.227 19.9076 123.652 20.0076L126.202 20.4822C127.297 20.6821 128.13 21.0568 128.702 21.6065C129.275 22.156 129.561 22.9138 129.561 23.8798C129.561 24.7625 129.332 25.5119 128.874 26.1281C128.417 26.7444 127.771 27.219 126.938 27.5521C126.12 27.8853 125.172 28.0518 124.093 28.0518Z" fill="white"/>
</g>
<defs>
<linearGradient id="paint0_linear_2619_10492" x1="13.1146" y1="-1.67626" x2="24.71" y2="31.5943" gradientUnits="userSpaceOnUse">
<stop stop-color="#F5B75E"/>
<stop offset="1" stop-color="#FF9600"/>
</linearGradient>
<linearGradient id="paint1_linear_2619_10492" x1="13.1146" y1="-1.67626" x2="24.71" y2="31.5943" gradientUnits="userSpaceOnUse">
<stop stop-color="#F5B75E"/>
<stop offset="1" stop-color="#FF9600"/>
</linearGradient>
<linearGradient id="paint2_linear_2619_10492" x1="13.1146" y1="-1.67631" x2="24.71" y2="31.5943" gradientUnits="userSpaceOnUse">
<stop stop-color="#F5B75E"/>
<stop offset="1" stop-color="#FF9600"/>
</linearGradient>
<clipPath id="clip0_2619_10492">
<rect width="129.561" height="32" fill="white"/>
</clipPath>
</defs>
</svg>
