<svg width="298" height="49" viewBox="0 0 298 49" fill="none" xmlns="http://www.w3.org/2000/svg">
<g clip-path="url(#clip0_290_9133)">
<path d="M24.6778 19.5854L21.681 22.2557L15.8824 18.1777L9.38291 35.2362L50.0008 0.5L59.6276 48.5L27.9167 26.7258L31.079 24.1642L55.3681 41.1691L47.4234 9.49605L3.62755 43.3614L14.0543 12.1145L24.6778 19.5854Z" fill="url(#paint0_linear_290_9133)"/>
<path d="M95.3734 14.6254L93.4776 17.8691C92.4501 16.994 90.7965 16.5566 88.5168 16.5566C86.3553 16.5566 84.5837 17.3311 83.2017 18.88C81.8198 20.4188 81.1288 22.3702 81.1288 24.7338C81.1288 27.0975 81.7666 28.9734 83.0423 30.3614C84.3297 31.7494 86.0424 32.4434 88.1802 32.4434C90.6252 32.4434 92.5386 31.6991 93.9206 30.2105L96.0644 33.3788C94.1863 35.0786 91.4343 35.9286 87.8081 35.9286C84.1821 35.9286 81.365 34.9127 79.3572 32.8809C77.3492 30.8492 76.3452 28.0782 76.3452 24.5679C76.3452 21.299 77.4554 18.5682 79.676 16.3755C81.9084 14.1728 84.7608 13.0714 88.2334 13.0714C91.2098 13.0714 93.5898 13.5894 95.3734 14.6254ZM107.539 35.5514V13.4486H112.145V35.5514H107.539ZM135.774 16.9337V35.5514H131.167V16.9337H122.911V13.4486H144.401V16.9337H135.774ZM155.167 35.5514V13.4486H159.774V35.5514H155.167Z" fill="white"/>
<path d="M185.54 35.8531H184.193L176.917 13.4486H179.876L184.901 29.7276L189.738 13.4486H192.604L185.54 35.8531ZM204.581 16.1643V22.3048H211.032V24.8696H204.581V32.8356H213.431V35.5514H201.916V13.4486H213.577V16.1643H204.581ZM234.511 35.5514L229.3 26.0615C228.704 26.0615 227.762 26.0112 226.474 25.9106V35.5514H223.808V13.4486C223.906 13.4486 224.594 13.4134 225.874 13.343C227.162 13.2625 228.101 13.2223 228.687 13.2223C233.378 13.2223 235.724 15.3345 235.724 19.559C235.724 20.947 235.346 22.1992 234.591 23.3156C233.836 24.422 232.938 25.1111 231.898 25.3826L237.564 35.5514H234.511ZM226.474 16.1643V23.3458C227.114 23.4464 227.736 23.4967 228.341 23.4967C229.94 23.4967 231.103 23.205 231.832 22.6216C232.561 22.0383 232.925 20.9972 232.925 19.4985C232.925 18.2614 232.534 17.3713 231.752 16.8281C230.97 16.285 229.735 16.0135 228.047 16.0135C227.781 16.0135 227.256 16.0638 226.474 16.1643ZM245.822 34.5406L246.794 31.7644C247.293 32.1769 247.91 32.5239 248.647 32.8055C249.393 33.077 250.061 33.2129 250.647 33.2129C251.686 33.2129 252.521 32.891 253.152 32.2473C253.783 31.6035 254.098 30.7839 254.098 29.7881C254.098 29.0438 253.921 28.3547 253.566 27.7211C253.218 27.0774 252.34 26.3784 250.927 25.624L249.354 24.7942C248.021 24.0902 247.088 23.2553 246.554 22.2897C246.031 21.3241 245.768 20.1624 245.768 18.8046C245.768 17.155 246.284 15.7871 247.314 14.7008C248.345 13.6145 249.67 13.0714 251.287 13.0714C253.446 13.0714 254.948 13.4687 255.791 14.2633L255.005 16.8884C254.649 16.5968 254.108 16.3152 253.378 16.0436C252.65 15.772 251.975 15.6362 251.353 15.6362C250.447 15.6362 249.732 15.928 249.207 16.5113C248.692 17.0947 248.434 17.844 248.434 18.7593C248.434 19.3225 248.527 19.8355 248.714 20.2982C248.901 20.7609 249.158 21.1481 249.487 21.4599C249.825 21.7718 250.509 22.2092 251.54 22.7724L253.14 23.6324C254.472 24.3466 255.405 25.2016 255.938 26.1972C256.48 27.183 256.751 28.4402 256.751 29.9691C256.751 31.6287 256.16 33.0368 254.978 34.1935C253.806 35.3502 252.233 35.9286 250.261 35.9286C248.527 35.9286 247.048 35.4659 245.822 34.5406ZM269.634 16.1643V22.3048H276.085V24.8696H269.634V32.8356H278.485V35.5514H266.969V13.4486H278.631V16.1643H269.634Z" fill="white"/>
</g>
<defs>
<linearGradient id="paint0_linear_290_9133" x1="54.6942" y1="7.68644" x2="5.45938" y2="36.9202" gradientUnits="userSpaceOnUse">
<stop stop-color="#F72585"/>
<stop offset="1" stop-color="#480CA8"/>
</linearGradient>
<clipPath id="clip0_290_9133">
<rect width="297.143" height="48" fill="white" transform="translate(0.198975 0.5)"/>
</clipPath>
</defs>
</svg>
