<svg width="180" height="42" viewBox="0 0 180 42" fill="none" xmlns="http://www.w3.org/2000/svg">
<path d="M57.1952 24.4692L59.477 12.4483H59.6657L63.8124 20.0291L67.7239 12.4483H67.9206L70.2179 24.4692H67.7239L66.7924 19.1522L63.8434 24.8965H63.6674L60.501 19.0726L59.5362 24.4692H57.1952ZM77.2996 24.4692V12.8264H84.0671V15.227H79.8453V17.3321H83.4619V19.7167H79.8453V22.0193H84.1291V24.4696H77.2996V24.4692ZM93.8495 24.4692V15.2603H90.3573V12.8264H99.9497V15.2603H96.473V24.4692H93.8499H93.8495ZM107.955 20.7693H110.842L109.417 17.1241L107.955 20.7693ZM103.842 24.4692L109.448 12.4647H109.613L115.095 24.4692H112.35L111.654 22.7754H107.194L106.483 24.4692H103.842H103.842Z" fill="white"/>
<path d="M128.826 12.4499C129.37 12.4499 129.844 12.541 130.247 12.7224C130.65 12.9038 131.048 13.1878 131.44 13.5729L130.715 14.498C130.423 14.223 130.133 14.0193 129.846 13.8868C129.559 13.7551 129.244 13.6889 128.902 13.6889C128.116 13.6889 127.492 14.0549 127.028 14.787C126.565 15.5191 126.334 16.7001 126.334 18.3299C126.334 19.915 126.565 21.0852 127.028 21.8389C127.491 22.5933 128.116 22.9701 128.902 22.9701C129.295 22.9701 129.632 22.8931 129.914 22.7391C130.196 22.585 130.504 22.359 130.836 22.0617L131.546 22.9701C130.791 23.8182 129.884 24.2414 128.826 24.2414C128.05 24.2414 127.363 24.0211 126.764 23.5805C126.165 23.1407 125.696 22.4766 125.359 21.5904C125.021 20.7043 124.853 19.6169 124.853 18.3283C124.853 17.0512 125.027 15.9721 125.374 15.091C125.722 14.2098 126.195 13.5497 126.795 13.1091C127.394 12.6694 128.072 12.4483 128.827 12.4483L128.826 12.4499ZM143.798 12.6644V24.0269H142.394V12.6644H143.798ZM161.324 12.6644L161.158 13.9191H158.604V24.0269H157.199V13.9191H154.57V12.6644H161.324ZM178.199 12.6644L175.207 19.65V24.0269H173.787V19.6666L170.796 12.6636H172.307L174.527 18.3448L176.733 12.6636L178.199 12.6644Z" fill="white"/>
<g filter="url(#filter0_d_33_960)">
<path d="M18.6835 14.1554L16.6643 15.9016L12.7572 13.2348L8.37791 24.3904L35.7459 1.67432L42.2323 33.0644L20.8658 18.8249L22.9965 17.1498L39.3624 28.2703L34.0093 7.55736L4.5 29.7039L11.5254 9.26975L18.6835 14.1554Z" fill="white"/>
</g>
<defs>
<filter id="filter0_d_33_960" x="0.5" y="1.67432" width="45.7323" height="39.39" filterUnits="userSpaceOnUse" color-interpolation-filters="sRGB">
<feFlood flood-opacity="0" result="BackgroundImageFix"/>
<feColorMatrix in="SourceAlpha" type="matrix" values="0 0 0 0 0 0 0 0 0 0 0 0 0 0 0 0 0 0 127 0" result="hardAlpha"/>
<feOffset dy="4"/>
<feGaussianBlur stdDeviation="2"/>
<feComposite in2="hardAlpha" operator="out"/>
<feColorMatrix type="matrix" values="0 0 0 0 0.0321181 0 0 0 0 0.12375 0 0 0 0 0.208333 0 0 0 0.25 0"/>
<feBlend mode="normal" in2="BackgroundImageFix" result="effect1_dropShadow_33_960"/>
<feBlend mode="normal" in="SourceGraphic" in2="effect1_dropShadow_33_960" result="shape"/>
</filter>
</defs>
</svg>
