<svg width="22" height="22" viewBox="0 0 22 22" fill="none" xmlns="http://www.w3.org/2000/svg">
<path d="M21 2C21.5523 2 22 1.55229 22 1C22 0.447715 21.5523 0 21 0C20.4477 0 20 0.447715 20 1C20 1.55229 20.4477 2 21 2Z" fill="#9C9C9C"/>
<path fill-rule="evenodd" clip-rule="evenodd" d="M10 1C5.02944 1 1 5.02944 1 10C1 14.9706 5.02944 19 10 19C12.125 19 14.078 18.2635 15.6177 17.0319L20.2929 21.7071C20.6834 22.0976 21.3166 22.0976 21.7071 21.7071C22.0976 21.3166 22.0976 20.6834 21.7071 20.2929L17.0319 15.6177C18.2635 14.078 19 12.125 19 10C19 5.02944 14.9706 1 10 1ZM2.8 10C2.8 13.9764 6.02355 17.2 10 17.2C13.9764 17.2 17.2 13.9764 17.2 10C17.2 6.02355 13.9764 2.8 10 2.8C6.02355 2.8 2.8 6.02355 2.8 10Z" fill="#9C9C9C"/>
<path d="M2 21C2 21.5523 1.55228 22 1 22C0.447715 22 0 21.5523 0 21C0 20.4477 0.447715 20 1 20C1.55228 20 2 20.4477 2 21Z" fill="#9C9C9C"/>
</svg>
