<svg width="24" height="24" viewBox="0 0 24 24" fill="none" xmlns="http://www.w3.org/2000/svg">
<rect x="0.25" y="0.25" width="23.5" height="23.5" rx="1.75" fill="#201E1E" fill-opacity="0.1" stroke="white" stroke-width="0.5"/>
<g clip-path="url(#clip0_634_3577)">
<path fill-rule="evenodd" clip-rule="evenodd" d="M21 12C21 16.9706 16.9706 21 12 21C7.02944 21 3 16.9706 3 12C3 7.02944 7.02944 3 12 3C16.9706 3 21 7.02944 21 12ZM12.3224 9.64412C11.447 10.0082 9.6975 10.7618 7.07382 11.9049C6.64778 12.0743 6.4246 12.2401 6.40428 12.4021C6.36994 12.676 6.71294 12.7839 7.18001 12.9308C7.24354 12.9507 7.30937 12.9714 7.37686 12.9934C7.83638 13.1427 8.45452 13.3175 8.77587 13.3244C9.06736 13.3307 9.3927 13.2106 9.75188 12.9639C12.2033 11.3092 13.4687 10.4728 13.5481 10.4547C13.6042 10.442 13.6819 10.426 13.7345 10.4728C13.7871 10.5196 13.7819 10.6082 13.7764 10.6319C13.7424 10.7768 12.396 12.0285 11.6992 12.6763C11.482 12.8782 11.328 13.0214 11.2965 13.0541C11.2259 13.1274 11.154 13.1967 11.0849 13.2634C10.658 13.6749 10.3378 13.9835 11.1026 14.4875C11.4701 14.7297 11.7642 14.93 12.0576 15.1298C12.378 15.348 12.6976 15.5656 13.1111 15.8367C13.2165 15.9057 13.3171 15.9774 13.4151 16.0473C13.788 16.3131 14.123 16.552 14.5368 16.5139C14.7773 16.4918 15.0257 16.2656 15.1519 15.5912C15.4501 13.9973 16.0361 10.5438 16.1716 9.12065C16.1834 8.99597 16.1685 8.8364 16.1565 8.76635C16.1445 8.6963 16.1195 8.5965 16.0284 8.52262C15.9206 8.43512 15.7541 8.41667 15.6797 8.41798C15.3412 8.42395 14.8218 8.60453 12.3224 9.64412Z" fill="white"/>
</g>
<defs>
<clipPath id="clip0_634_3577">
<rect width="18" height="18" fill="white" transform="translate(3 3)"/>
</clipPath>
</defs>
</svg>
