<svg width="24" height="24" viewBox="0 0 24 24" fill="none" xmlns="http://www.w3.org/2000/svg">
<path d="M22 3C22.5523 3 23 2.55229 23 2C23 1.44771 22.5523 1 22 1C21.4477 1 21 1.44771 21 2C21 2.55229 21.4477 3 22 3Z" fill="#9C9C9C"/>
<path d="M8 10C7.44772 10 7 10.4477 7 11C7 11.5523 7.44772 12 8 12H14C14.5523 12 15 11.5523 15 11C15 10.4477 14.5523 10 14 10H8Z" fill="#9C9C9C"/>
<path fill-rule="evenodd" clip-rule="evenodd" d="M11 2C6.02944 2 2 6.02944 2 11C2 15.9706 6.02944 20 11 20C13.125 20 15.078 19.2635 16.6177 18.0319L21.2929 22.7071C21.6834 23.0976 22.3166 23.0976 22.7071 22.7071C23.0976 22.3166 23.0976 21.6834 22.7071 21.2929L18.0319 16.6177C19.2635 15.078 20 13.125 20 11C20 6.02944 15.9706 2 11 2ZM3.8 11C3.8 14.9764 7.02355 18.2 11 18.2C14.9764 18.2 18.2 14.9764 18.2 11C18.2 7.02355 14.9764 3.8 11 3.8C7.02355 3.8 3.8 7.02355 3.8 11Z" fill="#9C9C9C"/>
<path d="M3 22C3 22.5523 2.55228 23 2 23C1.44772 23 1 22.5523 1 22C1 21.4477 1.44772 21 2 21C2.55228 21 3 21.4477 3 22Z" fill="#9C9C9C"/>
</svg>
