<svg width="22" height="22" viewBox="0 0 22 22" fill="none" xmlns="http://www.w3.org/2000/svg">
<path d="M22 1C22 1.55229 21.5523 2 21 2C20.4477 2 20 1.55229 20 1C20 0.447715 20.4477 0 21 0C21.5523 0 22 0.447715 22 1Z" fill="#9C9C9C"/>
<path d="M11.6036 11.1092L13.4867 10.6526C14.1711 10.4867 14.1711 9.51333 13.4867 9.34738L11.6036 8.89075C11.3593 8.83151 11.1685 8.64073 11.1092 8.39639L10.6526 6.51328C10.497 5.87168 9.63184 5.83158 9.38756 6.39298C9.37128 6.43041 9.35775 6.47051 9.34738 6.51328L8.89075 8.39639C8.83521 8.62546 8.66406 8.80745 8.44155 8.87812C8.42672 8.88284 8.41166 8.88705 8.39639 8.89076L6.51328 9.34738C5.87168 9.50296 5.83158 10.3682 6.39298 10.6124C6.43041 10.6287 6.47051 10.6422 6.51328 10.6526L8.39639 11.1092C8.61018 11.1611 8.78297 11.3136 8.86252 11.5146C8.87389 11.5434 8.88335 11.5731 8.89075 11.6036L9.34738 13.4867C9.51333 14.1711 10.4867 14.1711 10.6526 13.4867L11.1092 11.6036C11.1685 11.3593 11.3593 11.1685 11.6036 11.1092Z" fill="#9C9C9C"/>
<path fill-rule="evenodd" clip-rule="evenodd" d="M10 1C5.02944 1 1 5.02944 1 10C1 14.9706 5.02944 19 10 19C12.125 19 14.078 18.2635 15.6177 17.0319L20.2929 21.7071C20.6834 22.0976 21.3166 22.0976 21.7071 21.7071C22.0976 21.3166 22.0976 20.6834 21.7071 20.2929L17.0319 15.6177C18.2635 14.078 19 12.125 19 10C19 5.02944 14.9706 1 10 1ZM2.8 10C2.8 13.9764 6.02355 17.2 10 17.2C13.9764 17.2 17.2 13.9764 17.2 10C17.2 6.02355 13.9764 2.8 10 2.8C6.02355 2.8 2.8 6.02355 2.8 10Z" fill="#9C9C9C"/>
<path d="M1 22C1.55228 22 2 21.5523 2 21C2 20.4477 1.55228 20 1 20C0.447715 20 0 20.4477 0 21C0 21.5523 0.447715 22 1 22Z" fill="#9C9C9C"/>
</svg>
