<svg width="73" height="82" viewBox="0 0 73 82" fill="none" xmlns="http://www.w3.org/2000/svg">
<mask id="path-1-inside-1_490_3254" fill="white">
<path fill-rule="evenodd" clip-rule="evenodd" d="M72.3827 8C72.3827 3.58172 68.801 0 64.3827 0H8C3.58172 0 0 3.58171 0 7.99999V64.3827C0 68.801 3.58171 72.3827 7.99999 72.3827H21.9576C23.8813 72.3827 25.7406 73.0759 27.1948 74.3353L35.5367 81.5596C35.9125 81.885 36.4702 81.885 36.846 81.5596L45.1879 74.3353C46.6421 73.0759 48.5014 72.3827 50.4252 72.3827H64.3827C68.801 72.3827 72.3827 68.801 72.3827 64.3827V8Z"/>
</mask>
<path fill-rule="evenodd" clip-rule="evenodd" d="M72.3827 8C72.3827 3.58172 68.801 0 64.3827 0H8C3.58172 0 0 3.58171 0 7.99999V64.3827C0 68.801 3.58171 72.3827 7.99999 72.3827H21.9576C23.8813 72.3827 25.7406 73.0759 27.1948 74.3353L35.5367 81.5596C35.9125 81.885 36.4702 81.885 36.846 81.5596L45.1879 74.3353C46.6421 73.0759 48.5014 72.3827 50.4252 72.3827H64.3827C68.801 72.3827 72.3827 68.801 72.3827 64.3827V8Z" fill="white"/>
<path d="M35.5367 81.5596L34.8821 82.3155L34.8821 82.3155L35.5367 81.5596ZM36.846 81.5596L37.5007 82.3155H37.5007L36.846 81.5596ZM45.1879 74.3353L44.5333 73.5794L45.1879 74.3353ZM8 1H64.3827V-1H8V1ZM1 64.3827V7.99999H-1V64.3827H1ZM21.9576 71.3827H7.99999V73.3827H21.9576V71.3827ZM36.1914 80.8037L27.8494 73.5794L26.5401 75.0912L34.8821 82.3155L36.1914 80.8037ZM36.1914 80.8037L36.1914 80.8037L34.8821 82.3155C35.6336 82.9664 36.7491 82.9664 37.5007 82.3155L36.1914 80.8037ZM44.5333 73.5794L36.1914 80.8037L37.5007 82.3155L45.8426 75.0912L44.5333 73.5794ZM64.3827 71.3827H50.4252V73.3827H64.3827V71.3827ZM71.3827 8V64.3827H73.3827V8H71.3827ZM64.3827 73.3827C69.3533 73.3827 73.3827 69.3533 73.3827 64.3827H71.3827C71.3827 68.2487 68.2487 71.3827 64.3827 71.3827V73.3827ZM21.9576 73.3827C23.6408 73.3827 25.2677 73.9893 26.5401 75.0912L27.8494 73.5794C26.2135 72.1626 24.1218 71.3827 21.9576 71.3827V73.3827ZM-1 64.3827C-1 69.3533 3.02943 73.3827 7.99999 73.3827V71.3827C4.134 71.3827 1 68.2487 1 64.3827H-1ZM45.8426 75.0912C47.115 73.9893 48.7419 73.3827 50.4252 73.3827V71.3827C48.261 71.3827 46.1693 72.1626 44.5333 73.5794L45.8426 75.0912ZM64.3827 1C68.2487 1 71.3827 4.13401 71.3827 8H73.3827C73.3827 3.02944 69.3533 -1 64.3827 -1V1ZM8 -1C3.02944 -1 -1 3.02943 -1 7.99999H1C1 4.134 4.13401 1 8 1V-1Z" fill="black" mask="url(#path-1-inside-1_490_3254)"/>
<g clip-path="url(#clip0_490_3254)">
<path d="M35.9203 11.1548L36.093 11.147C42.5906 10.9127 48.6799 14.3272 52.6076 19.3327C53.6569 20.6693 54.4298 22.5633 55.6598 23.7026C55.7041 23.7434 55.7501 23.7831 55.7938 23.825C57.9301 25.9057 58.1079 32.2953 58.1567 35.1932C58.9156 35.8568 59.9033 36.1777 60.6212 36.8971C61.7614 38.0398 61.8949 39.5374 61.9201 41.0551C61.9611 43.5277 62.3105 46.3932 60.3777 48.2989C58.7799 49.8742 56.5717 49.683 54.5061 49.7149C53.5128 51.5954 52.2884 52.5553 50.2873 53.2295C48.4707 56.0715 47.3893 58.7666 44.944 61.2749C42.7521 63.5233 40.2181 63.9722 37.1659 64.0269C35.0739 64.0543 32.8754 63.961 30.9264 63.1196C27.6588 61.7098 24.4114 56.398 23.1147 53.1987C22.8786 53.1406 22.6447 53.0735 22.4136 52.9975C20.3485 52.3362 19.2862 51.2427 18.312 49.3577C17.169 49.3884 15.9244 49.5103 14.8033 49.2671C14.6642 49.2386 14.5273 49.2028 14.3922 49.1604C14.257 49.1179 14.1241 49.0687 13.9934 49.0128C13.8633 48.9569 13.736 48.8948 13.6114 48.8266C13.4875 48.7584 13.3669 48.6841 13.2503 48.6036C13.1336 48.5231 13.0214 48.437 12.9132 48.3453C12.8049 48.2536 12.7023 48.1569 12.6036 48.0546C12.5054 47.9529 12.4123 47.8461 12.3248 47.7349C12.2373 47.6236 12.1555 47.5084 12.0797 47.3888C11.7073 46.8046 11.4774 46.1383 11.354 45.4596C11.0388 43.7284 10.9586 38.5686 11.8402 37.0805C12.391 36.1508 14.0024 35.4006 14.3153 34.741C15.091 33.1053 14.7842 30.6467 15.1774 28.8064C15.4556 27.5061 15.9183 24.9497 17.0854 24.2051C18.1455 23.5287 18.8964 21.3737 19.5885 20.2869C20.1124 19.4786 20.6968 18.7167 21.3424 18.0011C25.2185 13.6419 30.1423 11.4835 35.9203 11.1548Z" fill="#050555"/>
<path d="M20.3261 21.6063C20.9347 21.613 21.2987 21.3877 21.827 21.1166L21.5925 21.7348C20.4534 22.8423 20.0687 24.6356 19.3704 25.2237L19.132 25.1555C19.0754 25.0001 19.0614 24.9822 19.035 24.7977C18.8886 23.7747 19.7664 22.4191 20.3261 21.6063Z" fill="#D2C8DF"/>
<path d="M36.2378 48.4789C37.4083 48.5667 38.0903 48.9418 38.9608 49.6847C38.3758 50.279 37.8032 50.6362 37.0437 50.961C36.7039 51.0046 36.4021 51.0146 36.0617 50.9593C35.2131 50.8218 34.7784 50.2644 34.3107 49.6093C34.931 48.9658 35.3673 48.6936 36.2378 48.4789Z" fill="#ECC2CE"/>
<path d="M58.5466 37.0335C58.8477 37.1761 59.1422 37.3751 59.3957 37.5903C60.1697 38.2477 60.5236 39.3395 60.592 40.3211C60.7115 42.0357 60.8741 44.7106 60.223 46.2937C60.0441 46.7286 59.7462 47.0741 59.4434 47.428C59.0541 47.7142 58.68 47.9534 58.2263 48.1228L58.0962 48.053C58.1175 48.0166 58.1388 47.9803 58.1596 47.9439L58.2555 47.7695C58.4002 47.5101 58.5286 47.2765 58.5729 46.978C58.7182 45.9963 58.6049 44.8408 58.601 43.8435L58.5466 37.0341V37.0335Z" fill="#91BAE4"/>
<path d="M14.5482 36.2582C14.7579 36.9754 14.6457 37.9671 14.6413 38.7263C14.6278 41.0289 14.2688 46.173 14.8864 48.1256C14.491 47.8579 14.1107 47.5672 13.7265 47.2832C13.5852 47.1071 13.4506 46.9265 13.3216 46.7409C12.3956 45.3887 12.3406 40.4044 12.7024 38.8073C12.9671 37.6384 13.5459 36.891 14.5482 36.2576V36.2582Z" fill="#91BAE4"/>
<path d="M55.5853 25.8727C56.4439 27.3916 56.8926 32.2265 56.9229 34.0992C56.0777 33.9779 55.256 33.9561 54.403 33.9533C54.2055 33.1679 53.8191 32.4977 53.4389 31.7877C54.1607 30.0972 53.5555 28.4341 53.0945 26.761C53.9722 26.5525 54.8315 26.3965 55.5853 25.8727Z" fill="#9E307D"/>
<path d="M17.3783 25.8297L19.1932 26.7045C19.09 27.917 18.7698 29.5304 19.0025 30.7116C19.0715 31.0604 19.2112 31.1409 19.4944 31.3315C19.3632 32.3635 18.3845 32.795 18.2998 34.8511C17.7636 34.9551 16.6436 34.5537 16.0087 34.5107C15.9812 31.3181 16.4691 28.8713 17.3783 25.8302V25.8297Z" fill="#D74158"/>
<path d="M16.5768 36.1385C17.1786 36.1358 17.7423 36.1699 18.339 36.2476L18.3491 43.6328C18.3503 44.838 18.4103 46.0774 18.3385 47.2798C18.3189 47.6102 18.343 47.7684 18.0962 47.9875C17.551 47.9982 16.7888 48.0988 16.3059 47.821C16.2543 47.665 16.2089 47.5208 16.1848 47.357C15.9683 45.8979 15.9952 38.4853 16.1764 37.0196C16.2196 36.6707 16.3772 36.4192 16.5779 36.1385H16.5768Z" fill="#3C5B94"/>
<path d="M45.9099 53.4369C46.8027 53.348 47.6799 53.334 48.5767 53.3363C47.1892 56.573 44.5896 60.7634 41.1425 62.1185C39.0399 62.9447 36.5255 63.0252 34.3163 62.659C34.8962 62.2806 36.4812 62.1062 37.2255 61.8585C37.9165 61.6288 38.5934 61.2414 39.2177 60.8719C41.6181 59.4508 45.2009 56.2376 45.9099 53.4369Z" fill="#CA98C4"/>
<path d="M54.5426 35.2268C55.1523 35.2279 56.0923 35.1318 56.6335 35.4236C56.9235 35.5795 57.0278 35.7143 57.1029 36.0385C57.3419 37.0676 57.3048 45.7291 57.159 46.9701C57.1136 47.3581 56.9537 47.6583 56.7535 47.9887C56.0603 48.4756 55.3368 48.3604 54.528 48.3464C54.6514 43.976 54.5572 39.5994 54.5432 35.2273L54.5426 35.2268Z" fill="#453A86"/>
<path d="M29.808 50.3092C31.6084 48.8143 31.8456 46.2669 34.176 44.7877C35.3022 44.0727 36.4396 44.0107 37.7128 44.2639C37.0011 45.4518 36.3908 46.1685 35.1839 46.8868C34.6886 47.1814 34.2994 47.3989 33.9118 47.8333C32.6319 49.0078 31.4396 51.5675 29.7407 52.0147C28.6566 52.2998 24.3166 52.0511 23.1332 51.7967C22.5757 51.6765 22.0401 51.4982 21.5471 51.2069C20.2952 50.4668 19.8252 49.3504 19.5061 48.0077C19.7478 48.3235 19.9912 48.6522 20.2784 48.9278C22.4074 50.9716 27.0486 50.3505 29.8074 50.308L29.808 50.3092Z" fill="#55CECE"/>
<path d="M37.7128 44.2645C42.3108 45.974 41.4067 49.5724 44.3226 50.3013C45.3619 50.5607 46.5447 50.4349 47.6098 50.4008C48.7921 50.3628 50.2453 50.4841 51.3389 50.0095C52.2335 49.6216 52.8297 48.9178 53.4304 48.1838C53.0602 49.545 52.6194 50.6334 51.3356 51.3903C49.5537 52.4418 45.4796 52.2121 43.4033 52.1578L43.2653 52.0762C40.6635 50.5065 39.5031 46.3027 35.6696 47.0909C35.0392 47.2206 34.5316 47.6952 33.9119 47.8327C34.2994 47.3983 34.6887 47.1809 35.1839 46.8863C36.3914 46.1679 37.0011 45.4513 37.7128 44.2634V44.2645Z" fill="#3096B1"/>
<path d="M41.3803 13.2495C45.8223 14.0975 49.8857 17.7043 52.3681 21.32C53.1657 22.4811 53.8634 23.6992 54.5538 24.9257C54.1062 25.0683 53.6547 25.2036 53.2139 25.3657C50.4993 20.6917 46.3966 16.9994 41.0819 15.5744C39.6248 15.1837 38.1329 14.9981 36.6287 14.9193C37.2944 14.2769 38.4823 13.8102 39.3629 13.5592C40.0432 13.4926 40.7263 13.4569 41.3808 13.2489L41.3803 13.2495Z" fill="#4576AC"/>
<path d="M20.3262 21.6063C22.0177 18.9308 24.1619 16.6858 26.8978 15.0551C31.2332 12.4713 36.5452 12.0554 41.3803 13.2495C40.7258 13.4574 40.0427 13.4932 39.3624 13.5597C38.4818 13.8102 37.2939 14.2775 36.6282 14.9198C32.2086 15.0288 28.1087 16.2782 24.7519 19.2422C23.8304 20.0561 22.8192 21.4486 21.5932 21.7348L21.8276 21.1166C21.2993 21.3877 20.9353 21.6124 20.3267 21.6063H20.3262Z" fill="white"/>
<path d="M21.8276 21.1166C22.4126 20.4502 23.002 19.7833 23.6178 19.1449C28.5938 13.9868 32.5815 13.6615 39.3624 13.5592C38.4818 13.8096 37.2939 14.2769 36.6282 14.9193C32.2086 15.0283 28.1087 16.2777 24.7519 19.2416C23.8304 20.0555 22.8192 21.4481 21.5931 21.7343L21.8276 21.116V21.1166Z" fill="#8894C9"/>
<path d="M35.0408 23.2716C38.701 22.6952 43.2288 24.322 46.1689 26.4323C47.345 27.2764 48.3675 28.262 49.3209 29.3453C46.4779 28.9646 43.3797 29.1754 40.5025 29.1597L23.5566 29.0943C25.1102 27.3519 26.6346 25.8503 28.7856 24.8463C29.1624 24.6702 29.6459 24.412 30.057 24.3684C31.4665 23.6294 33.4671 23.3554 35.0403 23.2716H35.0408Z" fill="url(#paint0_linear_490_3254)"/>
<path d="M36.6786 25.7514C37.2283 25.7542 38.0241 25.6513 38.447 26.0656C38.6001 26.2154 38.6388 26.3607 38.6899 26.5586C38.5659 26.818 38.4695 26.8935 38.1873 26.979C37.4734 27.1953 36.3343 27.0539 35.5877 26.9941C34.7891 26.9304 32.4379 27.6515 32.1598 27.5716C32.0425 27.538 31.9859 27.4011 31.899 27.3161C31.8126 26.889 31.8894 26.6464 32.1199 26.2836C33.6533 25.9778 35.1105 25.762 36.6781 25.7514H36.6786Z" fill="#050555"/>
<path d="M30.0576 24.3684C31.4671 23.6293 33.4677 23.3554 35.0409 23.2716C35.5591 23.2923 36.0762 23.3157 36.5945 23.3101C36.6242 24.1196 36.6876 24.9425 36.6786 25.7514C35.1104 25.7615 33.6539 25.9778 32.1205 26.2836C32.2478 25.9839 32.6841 26.0203 32.9819 25.866L32.9679 25.6211C32.6611 25.1309 32.1984 24.4813 31.6718 24.2135C31.4127 24.0816 31.1805 24.1873 30.9169 24.256C30.6819 24.3175 30.4654 24.3907 30.2197 24.3801C30.1659 24.3779 30.1115 24.3723 30.0582 24.3689L30.0576 24.3684Z" fill="white"/>
<path d="M33.6618 50.3952C34.4599 51.2315 35.3387 52.155 36.5799 52.1897C37.8525 52.2255 38.8862 51.3489 39.7465 50.5188C40.4863 51.1622 40.9838 52.088 41.7578 52.7174C43.0197 53.7443 44.3994 53.5649 45.9098 53.4369C45.2009 56.2381 41.6181 59.4508 39.2176 60.8718C38.5929 61.2419 37.9165 61.6288 37.2255 61.8585C36.4812 62.1062 34.8962 62.2806 34.3163 62.659C33.4273 62.5366 32.5748 62.3756 31.7425 62.0301C28.6533 60.7477 25.9247 56.2655 24.6975 53.3284C26.209 53.3256 27.7486 53.4933 29.2545 53.4324C31.2871 53.3502 32.3886 51.738 33.6623 50.3952H33.6618Z" fill="white"/>
<path d="M32.9887 53.3463C34.2108 53.2602 35.3028 53.6465 36.5025 53.6761C37.9585 53.7119 39.608 52.9953 41.0158 53.5532C41.1307 53.6801 41.2435 53.7415 41.253 53.9221C41.2861 54.551 40.4515 55.233 40.032 55.6461C39.2384 56.2102 38.4913 56.5853 37.5048 56.7072C36.115 56.8782 34.4817 56.388 33.3841 55.5125C32.9999 55.2062 32.5911 54.7059 32.5776 54.1899C32.5681 53.8159 32.7621 53.6141 32.9887 53.3463Z" fill="#050555"/>
<path d="M34.429 54.6091C36.0404 54.8137 37.4925 54.8322 39.11 54.6617L39.0393 54.8389C38.5474 55.1425 38.0213 55.351 37.4448 55.4248C36.3023 55.5695 35.3444 55.2861 34.4285 54.6091H34.429Z" fill="white"/>
<path d="M34.8541 16.3721C36.6247 16.11 38.6158 16.3682 40.3365 16.8065C44.7202 17.9234 48.9956 21.121 51.3462 24.9688C51.9205 25.909 52.3288 29.2704 52.5958 30.6216C52.031 30.0983 51.4045 29.7758 50.7242 29.432C50.4847 28.9311 50.2503 28.3754 49.9054 27.9383C49.3967 27.2932 48.7332 26.7694 48.1067 26.2428C45.276 23.8658 42.1582 22.5214 38.4806 22.0535C32.8501 21.5185 27.1417 22.8982 23.3805 27.3457C22.827 28.0003 21.6503 29.8826 20.8533 30.1028C20.6772 30.152 20.5992 30.0637 20.4484 29.9877C20.3895 29.8624 20.3351 29.7489 20.3098 29.6114C20.1057 28.5208 21.1775 24.564 21.8954 23.6685C22.3491 23.1016 23.0867 22.6158 23.6301 22.1122C26.9588 19.0281 30.2533 16.901 34.8541 16.3721Z" fill="white"/>
<path d="M51.7125 32.3003C52.3357 33.0153 52.7799 33.8119 52.9997 34.7393C53.348 36.2056 53.2493 43.5484 53.1242 45.3752C53.0351 46.6839 52.4703 47.5482 51.4899 48.3967C51.2672 48.5891 51.021 48.7534 50.7737 48.9127C49.5431 48.9692 44.8639 49.4684 44.0287 48.6539C43.5655 48.2017 43.2357 47.58 42.9109 47.0272C41.7932 45.1192 40.7427 43.8653 38.6383 43.0078C40.4314 39.903 41.7943 36.744 42.6765 33.2635C44.4101 33.2663 48.3995 32.7939 49.5975 34.0417C50.1449 34.6113 50.3093 35.3811 50.5151 36.1173C50.7378 36.3141 50.8881 36.3627 51.1769 36.4292C51.3435 36.3733 51.463 36.3817 51.5544 36.2174C51.887 35.6215 51.6486 34.7729 51.4663 34.1674C51.6946 33.6012 51.6323 32.9085 51.7125 32.3009V32.3003Z" fill="#169FA0"/>
<path d="M21.5831 31.4651C22.6386 30.37 24.0391 30.4539 25.4502 30.4259C30.613 30.3231 35.7931 30.4052 40.9569 30.422C43.1443 30.4287 47.0591 30.1878 49.0944 30.621C49.9212 30.7971 50.6116 31.2393 51.2257 31.8061C51.3945 31.9649 51.5566 32.1298 51.7125 32.3009C51.6329 32.9085 51.6946 33.6012 51.4663 34.1674C51.6486 34.7729 51.887 35.6215 51.5544 36.2174C51.4624 36.3823 51.3435 36.3739 51.1769 36.4292C50.8881 36.3627 50.7383 36.3141 50.5151 36.1173C50.3093 35.3816 50.1449 34.6119 49.5975 34.0417C48.3995 32.7939 44.4101 33.2669 42.6765 33.2635C41.7943 36.744 40.4314 39.903 38.6383 43.0078C37.447 42.7143 36.101 42.707 34.9176 43.0402C31.8839 43.895 30.7638 46.4396 29.3544 48.9507C27.42 48.9653 24.3459 49.2571 22.5556 48.745C21.5057 48.4448 20.7379 47.7673 20.2179 46.817C20.0233 46.4603 19.8764 46.1104 19.8242 45.7067C19.6234 44.1566 19.5432 34.8634 19.9162 33.6895C20.1955 32.8113 20.7541 31.9163 21.5825 31.4646L21.5831 31.4651Z" fill="#63E4D9"/>
<path d="M23.3958 34.2429C23.5057 34.291 23.6016 34.3273 23.7015 34.3983C23.9533 34.5778 24.0868 34.8785 24.1412 35.1737C24.2517 35.7774 24.0139 36.3381 23.6588 36.8105C23.5349 36.7602 23.398 36.7121 23.2898 36.6316C23.006 36.4203 22.8568 36.0335 22.8394 35.6897C22.8091 35.0915 23.0105 34.6829 23.3963 34.2429H23.3958Z" fill="#050555"/>
<path d="M21.523 35.295C21.5791 35.3436 21.6369 35.3911 21.6913 35.4415C22.1787 35.8898 22.1832 36.938 22.1775 37.5613C22.1708 38.3422 22.2151 39.0186 21.6313 39.5989C21.5174 39.515 21.4406 39.463 21.3357 39.3596C20.8842 38.9135 20.8337 38.1851 20.8152 37.5814C20.7889 36.6998 20.8971 35.944 21.5225 35.2944L21.523 35.295Z" fill="#050555"/>
<path d="M21.5831 31.4651C22.6386 30.37 24.0391 30.4539 25.4502 30.4259C30.6129 30.3231 35.7931 30.4052 40.9569 30.422C43.1443 30.4287 47.0591 30.1878 49.0944 30.621C49.9212 30.7971 50.6116 31.2393 51.2257 31.8061C51.3945 31.9649 51.5566 32.1298 51.7125 32.3009C51.6329 32.9085 51.6946 33.6012 51.4663 34.1674C51.4002 34.0512 51.3295 33.9382 51.2532 33.8281C51.1769 33.718 51.0962 33.6118 51.0104 33.5089C50.9245 33.4061 50.8342 33.3077 50.74 33.2132C50.6452 33.1187 50.5471 33.0282 50.4439 32.9426C50.3412 32.8565 50.2347 32.7755 50.1248 32.6995C50.0148 32.6234 49.9015 32.5519 49.7849 32.4859C49.6682 32.4199 49.5493 32.359 49.427 32.3037C49.3053 32.2483 49.1808 32.1986 49.0546 32.1544C48.5448 31.9794 48.0367 31.9414 47.5027 31.9179C42.7792 31.7078 37.9709 31.8755 33.24 31.8783L27.3274 31.8878C26.2466 31.8911 25.1148 31.8285 24.0425 31.9459C23.4468 32.0113 22.9583 32.2338 22.4255 32.4859L22.3739 32.3769C23.3044 30.739 42.4146 32.5798 43.7775 31.2684C43.9457 31.1063 43.8958 31.1582 43.9132 30.9089L43.713 30.711C42.8964 30.4774 25.1154 30.4813 23.4188 30.7351L23.1984 30.7692C22.651 30.8513 22.1883 31.2337 21.7362 31.5356L21.5825 31.4657L21.5831 31.4651Z" fill="#BDE4EA"/>
<path d="M22.426 32.4848C22.9589 32.2327 23.4479 32.0096 24.043 31.9448C25.1154 31.8274 26.2472 31.89 27.328 31.8866L33.2406 31.8771C37.972 31.8743 42.7797 31.7072 47.5033 31.9168C48.0372 31.9409 48.5459 31.9789 49.0552 32.1533C49.1819 32.1975 49.3059 32.2472 49.4276 32.3026C49.5493 32.3579 49.6688 32.4188 49.7854 32.4848C49.9021 32.5508 50.0154 32.6218 50.1253 32.6983C50.2352 32.7744 50.3418 32.8554 50.4444 32.9415C50.5471 33.027 50.6458 33.1176 50.7406 33.2121C50.8354 33.3066 50.9256 33.4049 51.0109 33.5078C51.0967 33.6107 51.1775 33.7169 51.2537 33.827C51.33 33.9371 51.4007 34.0501 51.4669 34.1663C51.6492 34.7717 51.8875 35.6203 51.5549 36.2163C51.463 36.3812 51.344 36.3728 51.1775 36.4281C50.8886 36.3616 50.7389 36.313 50.5157 36.1162C50.3098 35.3805 50.1455 34.6107 49.5981 34.0405C48.4001 32.7928 44.4107 33.2657 42.6771 33.2624L23.7575 33.2758C23.1972 33.6185 22.8186 34.1663 22.2724 34.4978C21.9863 34.6711 21.808 34.6745 21.49 34.6208C21.2735 34.3966 21.2594 34.3871 21.2185 34.0802C21.4389 33.4184 21.933 32.9577 22.426 32.4831V32.4848Z" fill="#050555"/>
</g>
<defs>
<linearGradient id="paint0_linear_490_3254" x1="44.8637" y1="23.8586" x2="27.9011" y2="35.1413" gradientUnits="userSpaceOnUse">
<stop stop-color="#E3D1A9"/>
<stop offset="1" stop-color="#FFFEF5"/>
</linearGradient>
<clipPath id="clip0_490_3254">
<rect width="50.8342" height="52.8951" fill="white" transform="translate(11.1359 11.1358)"/>
</clipPath>
</defs>
</svg>
